<svg width="331" height="193" viewBox="0 0 331 193" fill="none" xmlns="http://www.w3.org/2000/svg">
<rect width="108" height="108" rx="11" fill="#6FCF97"/>
<rect x="318" y="171" width="13" height="13" rx="3" fill="#6FCF97"/>
<path d="M29.856 25.8H42.528V53.256H64.224V25.8H76.896V93H64.224V65.352H42.528V93H29.856V25.8ZM121.085 86.088C119.805 89.096 118.013 91.24 115.709 92.52C113.405 93.736 110.717 94.344 107.645 94.344C104.765 94.344 102.045 93.8 99.4853 92.712C96.9893 91.624 94.7813 90.024 92.8613 87.912C90.9413 85.8 89.4053 83.24 88.2533 80.232C87.1653 77.224 86.6213 73.8 86.6213 69.96V68.424C86.6213 64.648 87.1653 61.256 88.2533 58.248C89.3413 55.24 90.8133 52.68 92.6693 50.568C94.5253 48.456 96.6693 46.856 99.1013 45.768C101.597 44.616 104.253 44.04 107.069 44.04C110.461 44.04 113.181 44.616 115.229 45.768C117.341 46.92 119.005 48.712 120.221 51.144H121.949V45.384H134.045V78.6C134.045 80.52 134.909 81.48 136.637 81.48H138.461V93H130.205C128.029 93 126.237 92.36 124.829 91.08C123.485 89.8 122.813 88.136 122.813 86.088H121.085ZM110.333 82.824C113.853 82.824 116.669 81.672 118.781 79.368C120.893 77 121.949 73.8 121.949 69.768V68.616C121.949 64.584 120.893 61.416 118.781 59.112C116.669 56.744 113.853 55.56 110.333 55.56C106.813 55.56 103.997 56.744 101.885 59.112C99.7733 61.416 98.7173 64.584 98.7173 68.616V69.768C98.7173 73.8 99.7733 77 101.885 79.368C103.997 81.672 106.813 82.824 110.333 82.824ZM195.515 75.528C194.427 81.16 191.835 85.704 187.739 89.16C183.707 92.616 178.299 94.344 171.515 94.344C167.995 94.344 164.699 93.8 161.627 92.712C158.619 91.624 155.995 90.056 153.755 88.008C151.515 85.96 149.755 83.432 148.475 80.424C147.195 77.416 146.555 73.992 146.555 70.152V69C146.555 65.16 147.195 61.704 148.475 58.632C149.755 55.56 151.515 52.936 153.755 50.76C156.059 48.584 158.715 46.92 161.723 45.768C164.795 44.616 168.059 44.04 171.515 44.04C178.171 44.04 183.547 45.768 187.643 49.224C191.803 52.68 194.427 57.224 195.515 62.856L183.611 65.928C183.227 63.112 182.011 60.68 179.963 58.632C177.915 56.584 175.035 55.56 171.323 55.56C169.595 55.56 167.963 55.88 166.427 56.52C164.891 57.16 163.547 58.088 162.395 59.304C161.243 60.456 160.315 61.896 159.611 63.624C158.971 65.288 158.651 67.176 158.651 69.288V69.864C158.651 71.976 158.971 73.864 159.611 75.528C160.315 77.128 161.243 78.472 162.395 79.56C163.547 80.648 164.891 81.48 166.427 82.056C167.963 82.568 169.595 82.824 171.323 82.824C175.035 82.824 177.851 81.896 179.771 80.04C181.755 78.184 183.035 75.688 183.611 72.552L195.515 75.528ZM223.768 62.856H226.072L238.744 45.384H251.992V45.96L236.632 67.752V69.48L253.528 92.424V93H239.704L226.072 74.376H223.768V93H211.672V25.8H223.768V62.856ZM26.112 116.8H48.384L52.224 167.296V177.088H54.528V167.296L58.368 116.8H80.64V184H69.12V139.072L70.272 123.712H67.968L62.976 184H43.968L38.784 123.712H36.48L37.632 139.072V184H26.112V116.8ZM91.1333 172.48H107.261V147.904H92.2853V136.384H119.357V172.48H133.181V184H91.1333V172.48ZM122.333 122.272C122.333 123.552 122.077 124.768 121.565 125.92C121.117 127.008 120.477 127.968 119.645 128.8C118.813 129.568 117.821 130.208 116.669 130.72C115.581 131.168 114.429 131.392 113.213 131.392C111.933 131.392 110.749 131.168 109.661 130.72C108.573 130.208 107.613 129.568 106.781 128.8C105.949 127.968 105.277 127.008 104.765 125.92C104.317 124.768 104.093 123.552 104.093 122.272C104.093 120.992 104.317 119.808 104.765 118.72C105.277 117.568 105.949 116.608 106.781 115.84C107.613 115.008 108.573 114.368 109.661 113.92C110.749 113.408 111.933 113.152 113.213 113.152C114.429 113.152 115.581 113.408 116.669 113.92C117.821 114.368 118.813 115.008 119.645 115.84C120.477 116.608 121.117 117.568 121.565 118.72C122.077 119.808 122.333 120.992 122.333 122.272ZM161.147 184H149.051V136.384H161.147V143.488H162.875C163.963 140.8 165.723 138.72 168.155 137.248C170.587 135.776 173.435 135.04 176.699 135.04C179.003 135.04 181.147 135.424 183.131 136.192C185.179 136.896 186.971 138.016 188.507 139.552C190.043 141.088 191.227 143.04 192.059 145.408C192.955 147.776 193.403 150.592 193.403 153.856V184H181.307V156.928C181.307 153.536 180.475 150.88 178.811 148.96C177.211 146.976 174.875 145.984 171.803 145.984C168.219 145.984 165.531 147.2 163.739 149.632C162.011 152 161.147 155.2 161.147 159.232V184ZM242.008 177.088H240.28C239.768 178.176 239.128 179.232 238.36 180.256C237.656 181.216 236.696 182.08 235.48 182.848C234.328 183.616 232.92 184.224 231.256 184.672C229.656 185.12 227.704 185.344 225.4 185.344C222.456 185.344 219.704 184.832 217.144 183.808C214.648 182.72 212.44 181.152 210.52 179.104C208.664 176.992 207.192 174.432 206.104 171.424C205.08 168.416 204.568 164.96 204.568 161.056V159.328C204.568 155.488 205.112 152.064 206.2 149.056C207.352 146.048 208.888 143.52 210.808 141.472C212.792 139.36 215.064 137.76 217.624 136.672C220.248 135.584 223 135.04 225.88 135.04C229.72 135.04 232.76 135.776 235 137.248C237.24 138.656 239 140.672 240.28 143.296H242.008V116.8H254.104V184H242.008V177.088ZM229.336 173.824C233.112 173.824 236.152 172.64 238.456 170.272C240.824 167.84 242.008 164.672 242.008 160.768V159.616C242.008 155.712 240.824 152.576 238.456 150.208C236.152 147.776 233.112 146.56 229.336 146.56C225.56 146.56 222.488 147.744 220.12 150.112C217.816 152.416 216.664 155.584 216.664 159.616V160.768C216.664 164.8 217.816 168 220.12 170.368C222.488 172.672 225.56 173.824 229.336 173.824ZM281.781 149.824C281.781 151.36 282.581 152.48 284.181 153.184C285.781 153.824 288.693 154.368 292.917 154.816C297.781 155.328 301.749 156.8 304.821 159.232C307.893 161.6 309.429 164.928 309.429 169.216V169.792C309.429 174.528 307.701 178.304 304.245 181.12C300.789 183.936 295.925 185.344 289.653 185.344C285.941 185.344 282.773 184.864 280.149 183.904C277.525 182.944 275.349 181.76 273.621 180.352C271.893 178.88 270.549 177.28 269.589 175.552C268.693 173.76 268.085 172.032 267.765 170.368L278.901 166.72C279.413 168.768 280.469 170.56 282.069 172.096C283.733 173.632 286.261 174.4 289.653 174.4C292.661 174.4 294.709 173.952 295.797 173.056C296.949 172.096 297.525 171.072 297.525 169.984C297.525 169.344 297.365 168.768 297.045 168.256C296.789 167.68 296.277 167.168 295.509 166.72C294.741 166.208 293.685 165.792 292.341 165.472C291.061 165.152 289.429 164.896 287.445 164.704C282.069 164.256 277.781 162.88 274.581 160.576C271.445 158.208 269.877 154.752 269.877 150.208V149.632C269.877 147.264 270.389 145.184 271.413 143.392C272.437 141.6 273.781 140.096 275.445 138.88C277.109 137.6 279.029 136.64 281.205 136C283.381 135.36 285.621 135.04 287.925 135.04C290.933 135.04 293.525 135.424 295.701 136.192C297.941 136.896 299.829 137.856 301.365 139.072C302.901 140.224 304.149 141.536 305.109 143.008C306.069 144.416 306.805 145.792 307.317 147.136L296.373 151.552C295.797 149.824 294.805 148.48 293.397 147.52C291.989 146.496 290.165 145.984 287.925 145.984C285.877 145.984 284.341 146.368 283.317 147.136C282.293 147.84 281.781 148.736 281.781 149.824Z" fill="black"/>
</svg>
